<svg width="20" height="20" viewBox="0 0 20 20" fill="none" xmlns="http://www.w3.org/2000/svg">
<g clip-path="url(#clip0_4660_4295)">
<path d="M0 10C-1.95685e-08 11.3132 0.258658 12.6136 0.761205 13.8268C1.26375 15.0401 2.00035 16.1425 2.92893 17.0711C3.85752 17.9997 4.95991 18.7362 6.17317 19.2388C7.38642 19.7413 8.68678 20 10 20C11.3132 20 12.6136 19.7413 13.8268 19.2388C15.0401 18.7362 16.1425 17.9997 17.0711 17.0711C17.9997 16.1425 18.7362 15.0401 19.2388 13.8268C19.7413 12.6136 20 11.3132 20 10C20 7.34784 18.9464 4.8043 17.0711 2.92893C15.1957 1.05357 12.6522 0 10 0C7.34784 0 4.8043 1.05357 2.92893 2.92893C1.05357 4.8043 3.95203e-08 7.34784 0 10Z" fill="#38AE04"/>
<path d="M8.57129 5.71484L12.857 10.0006L8.57129 14.2863" stroke="white" stroke-width="2" stroke-linecap="round" stroke-linejoin="round"/>
</g>
<defs>
<clipPath id="clip0_4660_4295">
<rect width="20" height="20" fill="white"/>
</clipPath>
</defs>
</svg>
