<svg width="321" height="231" viewBox="0 0 321 231" fill="none" xmlns="http://www.w3.org/2000/svg">
<path d="M285.174 182.148H304.2H285.174Z" fill="#8E99A4"/>
<path d="M285.174 182.148H304.2" stroke="#C6CBDB" stroke-width="3.2" stroke-linecap="round" stroke-linejoin="round"/>
<path d="M13.4077 182.148H277.174H13.4077Z" fill="#8E99A4"/>
<path d="M13.4077 182.148H277.174" stroke="#C6CBDB" stroke-width="3.2" stroke-linecap="round" stroke-linejoin="round"/>
<path d="M258.771 195.15C264.979 195.255 276.174 200.147 276.174 200.147L276.133 202.944C276.068 207.08 268.192 210.32 258.537 210.141C248.881 209.963 241.11 206.484 241.174 202.342L241.215 199.545C241.215 199.545 252.737 195.046 258.771 195.15Z" fill="#EBF1F7"/>
<path d="M277.171 198.936C277.239 194.794 269.46 191.308 259.796 191.149C250.133 190.991 242.244 194.22 242.176 198.361C242.108 202.503 249.887 205.989 259.55 206.147C269.214 206.306 277.103 203.077 277.171 198.936Z" fill="#F4F6F8"/>
<path d="M66.9458 189.161C61.9912 189.412 53.1738 193.61 53.1738 193.61L53.2784 195.837C53.4352 199.136 59.8072 201.496 67.5092 201.106C75.2113 200.717 81.3277 197.729 81.1709 194.43L81.0663 192.203C81.0663 192.203 71.7611 188.921 66.9458 189.161Z" fill="#EBF1F7"/>
<path d="M67.4659 199.141C75.1888 198.765 81.3186 195.777 81.1573 192.467C80.996 189.157 74.6047 186.779 66.8818 187.155C59.159 187.532 53.0292 190.52 53.1905 193.83C53.3518 197.14 59.7431 199.518 67.4659 199.141Z" fill="#F4F6F8"/>
<path d="M297.008 188.157C293.479 188.321 287.174 191.122 287.174 191.122L287.25 192.605C287.362 194.807 291.915 196.381 297.414 196.12C302.913 195.86 307.283 193.856 307.172 191.672L307.095 190.189C307.095 190.189 300.449 187.998 297.008 188.157Z" fill="#EBF1F7"/>
<path d="M297.368 195.143C302.885 194.875 307.269 192.868 307.162 190.661C307.054 188.455 302.495 186.884 296.979 187.153C291.463 187.422 287.078 189.428 287.185 191.635C287.293 193.841 291.852 195.412 297.368 195.143Z" fill="#F4F6F8"/>
<path d="M238.174 134.036V193.567C238.171 202.723 230.743 210.145 221.579 210.148H120.769C111.605 210.145 104.177 202.723 104.174 193.567V107.148C104.171 109.881 105.256 112.503 107.189 114.435C109.123 116.367 111.747 117.451 114.482 117.448H221.567C225.971 117.446 230.195 119.193 233.309 122.304C236.424 125.415 238.174 129.635 238.174 134.036Z" fill="#E8EAF1"/>
<path d="M217.174 107.855V117.148H114.447C108.773 117.148 104.174 112.447 104.174 106.648C104.174 100.849 108.773 96.1484 114.447 96.1484H205.727C208.764 96.1484 211.676 97.382 213.823 99.5776C215.97 101.773 217.175 104.751 217.174 107.855Z" fill="#E8EAF1"/>
<g style="mix-blend-mode:screen" opacity="0.28">
<path d="M123.119 116.219V210.851H120.549C111.252 210.851 103.737 202.96 103.737 193.212V105.262C103.737 111.318 108.41 116.219 114.18 116.219H123.119Z" fill="#FCF5E3"/>
</g>
<path d="M217.174 107.831V117.148H114.447C108.773 117.148 104.174 112.447 104.174 106.648C104.174 100.849 108.773 96.1484 114.447 96.1484H205.727C212.042 96.1484 217.164 101.376 217.174 107.831Z" fill="#D3D7E6"/>
<path d="M217.569 116.721V107.603C217.57 104.565 216.36 101.65 214.204 99.5018C212.048 97.3532 209.124 96.1469 206.075 96.1484H114.482C108.789 96.1484 104.174 100.748 104.174 106.423C104.174 112.097 108.789 116.697 114.482 116.697H221.577C230.742 116.7 238.171 124.104 238.174 133.239V192.631C238.157 201.751 230.74 209.139 221.589 209.148H120.771C111.606 209.145 104.177 201.741 104.174 192.607V106.423" stroke="#C6CBDB" stroke-width="3.2" stroke-linecap="round" stroke-linejoin="round"/>
<g style="mix-blend-mode:multiply" opacity="0.41">
<path d="M201.709 154.148H238.174V178.148H201.709C195.888 178.139 191.174 173.431 191.174 167.628V164.686C191.169 161.896 192.277 159.218 194.252 157.242C196.228 155.266 198.911 154.153 201.709 154.148V154.148Z" fill="#E8EAF1"/>
</g>
<path d="M201.916 149.148H240.174V173.148H201.916C195.982 173.135 191.177 168.325 191.174 162.393V159.91C191.174 153.976 195.979 149.161 201.916 149.148Z" fill="#E8EAF1" stroke="#C6CBDB" stroke-width="3.2" stroke-linecap="round" stroke-linejoin="round"/>
<path d="M204.674 165.148C207.159 165.148 209.174 163.134 209.174 160.648C209.174 158.163 207.159 156.148 204.674 156.148C202.189 156.148 200.174 158.163 200.174 160.648C200.174 163.134 202.189 165.148 204.674 165.148Z" fill="#E8EAF1" stroke="#C6CBDB" stroke-width="3.2" stroke-linecap="round" stroke-linejoin="round"/>
<path fill-rule="evenodd" clip-rule="evenodd" d="M161.111 138.337C159.165 137.567 157.096 137.164 155.008 137.148C153.76 137.153 152.515 137.282 151.292 137.535L146.336 146.249C148.382 145.123 150.68 144.556 153.006 144.602C154.425 144.603 155.837 144.803 157.202 145.197L161.111 138.337ZM131.174 161.775C131.174 174.364 141.707 184.148 153.96 184.148C166.706 184.194 177.087 173.759 177.174 160.812C177.109 153.605 173.853 146.811 168.309 142.314L164.446 149.09C167.853 152.042 169.82 156.359 169.83 160.907C169.612 169.686 162.508 176.669 153.863 176.603C145.217 176.536 138.219 169.445 138.131 160.663C138.13 159.606 138.226 158.552 138.418 157.513L131.174 161.775Z" fill="#F9F9FC"/>
<g opacity="0.39">
<path d="M224.174 93.1484L230.174 73.1484L224.174 93.1484Z" fill="#8E99A4"/>
<path d="M224.174 93.1484L230.174 73.1484" stroke="#C6CBDB" stroke-width="5.6" stroke-linecap="round" stroke-linejoin="round"/>
</g>
<g opacity="0.39">
<path d="M233.174 97.1484L254.174 85.1484L233.174 97.1484Z" fill="#8E99A4"/>
<path d="M233.174 97.1484L254.174 85.1484" stroke="#C6CBDB" stroke-width="5.6" stroke-linecap="round" stroke-linejoin="round"/>
</g>
<g opacity="0.39">
<path d="M236.174 107.148L257.174 110.148L236.174 107.148Z" fill="#8E99A4"/>
<path d="M236.174 107.148L257.174 110.148" stroke="#C6CBDB" stroke-width="5.6" stroke-linecap="round" stroke-linejoin="round"/>
</g>
<path d="M133.174 76.1484C148.638 76.1484 161.174 63.6124 161.174 48.1484C161.174 32.6845 148.638 20.1484 133.174 20.1484C117.71 20.1484 105.174 32.6845 105.174 48.1484C105.174 63.6124 117.71 76.1484 133.174 76.1484Z" fill="#FDD760" stroke="#FFC729" stroke-width="5.6"/>
<path d="M134.174 30.1484V54.1484V30.1484Z" fill="#FDD760"/>
<path d="M134.174 30.1484V54.1484" stroke="#FFC729" stroke-width="5.6" stroke-linecap="round"/>
<path d="M134.174 66.1484V64.1484V66.1484Z" fill="#FDD760"/>
<path d="M134.174 66.1484V64.1484" stroke="#FFC729" stroke-width="5.6" stroke-linecap="round"/>
<g style="mix-blend-mode:screen" opacity="0.38">
<path d="M116.326 47.2055C116.33 34.7769 124.552 23.837 136.519 20.3368C125.203 19.0247 114.212 24.6515 108.692 34.5825C103.172 44.5135 104.217 56.7828 111.336 65.6455C118.456 74.5081 130.241 78.2097 141.174 75.0171C127.01 73.3708 116.328 61.4152 116.326 47.2055Z" fill="#FDD760"/>
</g>
<path fill-rule="evenodd" clip-rule="evenodd" d="M133.174 76.1484C148.638 76.1484 161.174 63.6124 161.174 48.1484C161.174 32.6845 148.638 20.1484 133.174 20.1484C117.71 20.1484 105.174 32.6845 105.174 48.1484C105.174 63.6124 117.71 76.1484 133.174 76.1484Z" stroke="#FFC729" stroke-width="5.6"/>
</svg>
