<svg xmlns="http://www.w3.org/2000/svg" width="17" height="17" fill="none">
    <path fill="#FEEE00" stroke="#404554" d="M8.132 16.028c4.134 0 7.498-3.364 7.498-7.498 0-4.16-3.367-7.54-7.498-7.54C4 .99.634 4.37.634 8.53c0 4.134 3.364 7.498 7.498 7.498Z"/>
    <path fill="#FEEE00" stroke="#333848" d="M10.477 8.78v-.001l-.005.004c-.167.136-.301.392-.215.665l.492 1.927a.146.146 0 0 1-.029.127.144.144 0 0 1-.11.051.18.18 0 0 1-.08-.026l-.008-.005-1.8-1.063a.667.667 0 0 0-.682 0l-1.786 1.05-.01.005a.176.176 0 0 1-.08.026.17.17 0 0 1-.123-.056.105.105 0 0 1-.024-.044.11.11 0 0 1 .004-.058l.003-.011.497-1.947.001-.007a.65.65 0 0 0-.218-.646l-.005-.004-1.624-1.28a.123.123 0 0 1-.046-.065.126.126 0 0 1 .005-.073.15.15 0 0 1 .14-.101h.002l2.109-.141.012-.001a.694.694 0 0 0 .537-.365l.006-.011.005-.011.806-1.87v-.003c.024-.055.082-.095.157-.095s.133.04.156.095l.001.002.806 1.87.004.01a.643.643 0 0 0 .565.38l2.1.14c.055.003.104.04.125.1.01.03.01.056.005.077a.116.116 0 0 1-.043.062l-1.65 1.292Z"/>
</svg>
