<svg xmlns="http://www.w3.org/2000/svg" width="16" height="17" fill="none">
    <path fill="#FEEE00" stroke="#404554" d="M7.998 16.028c4.134 0 7.498-3.364 7.498-7.498 0-4.16-3.366-7.54-7.498-7.54S.5 4.37.5 8.53c0 4.134 3.364 7.498 7.498 7.498Z"/>
    <path fill="#404554" d="M9.4 4.095a3.315 3.315 0 0 0-1.227-.233c-.249 0-.497.03-.746.077L6.424 5.665a2.69 2.69 0 0 1 1.345-.327c.287 0 .567.04.84.117l.792-1.36ZM3.378 8.734c0 2.487 2.114 4.422 4.577 4.422 2.58 0 4.663-2.083 4.663-4.616 0-1.484-.715-2.79-1.78-3.66l-.777 1.344a3.074 3.074 0 0 1 1.08 2.34c0 1.725-1.43 3.139-3.186 3.139a3.177 3.177 0 0 1-3.178-3.179v-.007c0-.21.015-.42.054-.622l-1.453.84Z"/>
</svg>
