<svg width="321" height="231" viewBox="0 0 321 231" fill="none" xmlns="http://www.w3.org/2000/svg">
<path d="M277.205 178.038H299.798H277.205Z" fill="#8E99A4"/>
<path d="M277.205 178.038H299.798" stroke="#C6CBDB" stroke-width="3.2" stroke-linecap="round" stroke-linejoin="round"/>
<path d="M18.3301 178.038H269.675H18.3301Z" fill="#8E99A4"/>
<path d="M18.3301 178.038H269.675" stroke="#C6CBDB" stroke-width="3.2" stroke-linecap="round" stroke-linejoin="round"/>
<path d="M136.001 132.033C120.723 135.538 86.5427 140.874 68.9296 123.842C48.4561 104.038 60.1863 61.535 73.7258 53.7783" stroke="#E8EAF1" stroke-width="2.88" stroke-linecap="round" stroke-dasharray="8.47"/>
<path d="M260.451 86.667C269.703 92.8953 283.726 105.802 271.462 121.24C257.775 138.498 225.238 138.072 212.25 137.139" stroke="#E8EAF1" stroke-width="2.88" stroke-linecap="round" stroke-dasharray="8.46"/>
<path d="M20.2129 176.097H288.502C288.502 159.424 271.196 151.083 253.884 159.424C253.884 134.41 236.577 126.074 219.265 126.074L150.028 117.732L124.063 126.054H106.757C98.1185 117.732 80.7914 126.054 80.7914 142.727C66.7215 135.247 54.5265 146.996 54.8263 159.4C37.5196 151.083 28.8662 159.419 20.2129 176.097Z" fill="#F4F6F8"/>
<path d="M113.41 104.438H191.23V161.053H113.41V104.438Z" fill="#E8EAF1"/>
<path d="M184.178 107.741H197.388V157.122H184.178V107.741Z" fill="#D1D4D1"/>
<path d="M120.013 156.242H106.803V109.469H120.013V156.242Z" fill="#EEF0F4"/>
<path d="M114.351 156.242H106.803V109.469H114.351V156.242Z" fill="#E8EAF1"/>
<path d="M197.388 156.242H184.178V109.469H197.388V156.242Z" fill="#EEF0F4"/>
<path d="M191.726 156.242H184.178V109.469H191.726V156.242Z" fill="#E8EAF1"/>
<path d="M180.402 103.496H201.161V108.214C201.161 110.298 199.471 111.988 197.387 111.988H184.177C182.092 111.988 180.402 110.298 180.402 108.214V103.496Z" fill="#EEF0F4"/>
<path d="M184.177 153.506H197.387C199.471 153.506 201.161 155.196 201.161 157.28V161.998H180.402V157.28C180.402 155.196 182.092 153.506 184.177 153.506Z" fill="#EEF0F4"/>
<path d="M120.014 111.988H106.804C104.719 111.988 103.029 110.298 103.029 108.214V103.496H123.788V108.214C123.788 110.298 122.098 111.988 120.014 111.988Z" fill="#EEF0F4"/>
<path d="M123.788 161.998H103.029V157.28C103.029 155.196 104.719 153.506 106.804 153.506H120.014C122.098 153.506 123.788 155.196 123.788 157.28V161.998Z" fill="#EEF0F4"/>
<path d="M101.141 94.4375H204.933V102.552C204.933 103.594 204.088 104.439 203.045 104.439H103.027C101.985 104.439 101.141 103.594 101.141 102.552V94.4375Z" fill="#EEF0F4"/>
<path d="M101.141 94.4365H199.271V102.551C199.271 103.593 198.426 104.438 197.385 104.438H103.027C101.985 104.438 101.141 103.593 101.141 102.551V94.4365Z" fill="#E8EAF1"/>
<path d="M103.027 161.053H203.045C204.088 161.053 204.933 161.898 204.933 162.94V172.375H101.141V162.94C101.141 161.898 101.985 161.053 103.027 161.053Z" fill="#EEF0F4"/>
<path d="M103.027 161.053H197.385C198.426 161.053 199.271 161.898 199.271 162.94V172.375H101.141V162.94C101.141 161.898 101.985 161.053 103.027 161.053Z" fill="#E8EAF1"/>
<path d="M206.824 85.077V95.0028C206.824 96.0454 205.979 96.8903 204.938 96.8903H99.2578C98.216 96.8903 97.3711 96.0454 97.3711 95.0028V85.077C97.3728 84.2502 97.9058 83.5194 98.6919 83.2654L148.324 67.8662L150.418 67.2244C151.512 66.8849 152.683 66.8849 153.777 67.2244L205.504 83.2654C206.29 83.5194 206.823 84.2502 206.824 85.077Z" fill="#EEF0F4"/>
<path d="M199.276 85.077V95.0028C199.276 96.0454 198.431 96.8903 197.389 96.8903H99.2578C98.216 96.8903 97.3711 96.0454 97.3711 95.0028V85.077C97.3728 84.2503 97.9058 83.5194 98.6919 83.2654L148.324 67.8662L197.955 83.2654C198.741 83.5194 199.274 84.2503 199.276 85.077Z" fill="#E8EAF1"/>
<path d="M104.916 89.3408V89.2406L151.528 74.7717C151.892 74.6594 152.282 74.6594 152.645 74.7717L199.272 89.2406V89.3408H104.916Z" fill="#E8EAF1"/>
<path d="M99.2578 168.602H204.938C205.979 168.602 206.824 169.446 206.824 170.489V174.263C206.824 175.305 205.979 176.15 204.938 176.15H99.2578C98.216 176.15 97.3711 175.305 97.3711 174.263V170.489C97.3711 169.446 98.216 168.602 99.2578 168.602Z" fill="#EEF0F4"/>
<path d="M99.2578 168.602H199.276C200.319 168.602 201.163 169.446 201.163 170.489V174.263C201.163 175.305 200.319 176.15 199.276 176.15H99.2578C98.216 176.15 97.3711 175.305 97.3711 174.263V170.489C97.3711 169.446 98.216 168.602 99.2578 168.602Z" fill="#E8EAF1"/>
<path d="M99.2578 176.15H104.92C103.877 176.15 103.032 175.305 103.032 174.263V170.489C103.032 169.446 103.877 168.601 104.92 168.601H106.806V162.94C106.806 161.898 107.651 161.053 108.694 161.053V157.279C108.694 155.194 110.383 153.504 112.468 153.504V111.987C110.383 111.987 108.694 110.297 108.694 108.213V104.439C107.651 104.439 106.806 103.594 106.806 102.551V96.8903H104.92C103.877 96.8903 103.032 96.0454 103.032 95.0028V85.077C103.035 84.2502 103.568 83.5194 104.353 83.2654L153.985 67.8662L154.929 67.5794L153.777 67.2244C152.683 66.8849 151.512 66.8849 150.418 67.2244L148.324 67.8662L98.6919 83.2654C97.9058 83.5194 97.3728 84.2502 97.3711 85.077V95.0028C97.3711 96.0454 98.216 96.8903 99.2578 96.8903H101.145V102.551C101.145 103.594 101.99 104.439 103.032 104.439V108.213C103.032 110.297 104.722 111.987 106.806 111.987V153.504C104.722 153.504 103.032 155.194 103.032 157.279V161.053C101.99 161.053 101.145 161.898 101.145 162.94V168.601H99.2578C98.216 168.601 97.3711 169.446 97.3711 170.489V174.263C97.3711 175.305 98.216 176.15 99.2578 176.15Z" fill="white"/>
<path d="M104.916 153.505V111.987H108.69V153.505H104.916Z" fill="white"/>
<path d="M206.056 81.4667L154.333 65.4144C152.875 64.9608 151.313 64.9608 149.855 65.4144L98.1334 81.4667C96.5517 81.9522 95.4744 83.4156 95.4805 85.0707V95.0026C95.4805 97.0871 97.1702 98.7768 99.2547 98.7768V102.551C99.2556 104.076 100.172 105.45 101.579 106.035C100.979 107.467 100.997 109.084 101.629 110.502C102.26 111.92 103.451 113.015 104.916 113.527V130.858C104.916 131.901 105.761 132.746 106.803 132.746C107.846 132.746 108.691 131.901 108.691 130.858V113.875H118.126V151.617H108.691V145.956C108.691 144.913 107.846 144.068 106.803 144.068C105.761 144.068 104.916 144.913 104.916 145.956V151.964C102.663 152.761 101.152 154.888 101.142 157.279V159.69C99.9778 160.359 99.259 161.598 99.2547 162.94V166.714C97.1702 166.714 95.4805 168.404 95.4805 170.489V176.15C95.4805 177.192 96.3254 178.037 97.368 178.037H206.821C207.864 178.037 208.709 177.192 208.709 176.15V170.489C208.705 169.146 207.986 167.907 206.821 167.239V162.94C206.821 160.856 205.132 159.165 203.047 159.165V157.279C203.038 154.888 201.527 152.761 199.273 151.964V113.527C200.696 113.044 201.863 112.007 202.508 110.651C203.153 109.293 203.222 107.734 202.7 106.326H203.047C205.132 106.326 206.821 104.636 206.821 102.551V98.2524C207.986 97.5838 208.705 96.345 208.709 95.0026V85.0707C208.715 83.4156 207.638 81.9522 206.056 81.4667ZM99.2547 85.0707L150.973 69.0184C151.703 68.7921 152.484 68.7921 153.213 69.0184L204.935 85.0707V95.0026H99.2547V85.0707ZM106.803 110.1C105.761 110.1 104.916 109.255 104.916 108.213C104.916 107.171 105.761 106.326 106.803 106.326H121.9V108.213C121.9 109.255 121.055 110.1 120.013 110.1H106.803ZM178.514 106.326V108.213C178.525 110.603 180.035 112.73 182.289 113.527V151.964C180.035 152.761 178.525 154.888 178.514 157.279V159.165H125.675V157.279C125.665 154.888 124.155 152.761 121.9 151.964V113.527C124.155 112.73 125.665 110.603 125.675 108.213V106.326H178.514ZM195.499 151.617H186.064V113.875H195.499V151.617ZM104.916 157.279C104.916 156.236 105.761 155.391 106.803 155.391H120.013C121.055 155.391 121.9 156.236 121.9 157.279V159.165H104.916V157.279ZM103.029 162.94H203.047V166.714H103.029V162.94ZM204.935 174.263H99.2547V170.489H204.935V174.263ZM182.289 159.165V157.279C182.289 156.236 183.134 155.391 184.176 155.391H197.386C198.428 155.391 199.273 156.236 199.273 157.279V159.165H182.289ZM199.273 108.213C199.273 109.255 198.428 110.1 197.386 110.1H184.176C183.134 110.1 182.289 109.255 182.289 108.213V106.326H197.386C198.428 106.326 199.273 107.171 199.273 108.213ZM203.047 102.551H103.029V98.7768H203.047V102.551Z" fill="#C6CBDB"/>
<path d="M104.917 91.2281H199.273C200.335 91.1814 201.169 90.3037 201.161 89.2412C201.162 88.4162 200.627 87.6862 199.84 87.4392L153.21 72.9686C152.482 72.7422 151.702 72.7422 150.974 72.9686L104.35 87.4392C103.563 87.6862 103.028 88.4162 103.029 89.2412V89.3414C103.029 90.3832 103.874 91.2281 104.917 91.2281ZM152.095 76.5743L187.151 87.4538H117.041L152.095 76.5743Z" fill="#C6CBDB"/>
<path d="M106.085 140.144C106.192 140.198 106.306 140.237 106.425 140.257C106.55 140.278 106.676 140.29 106.802 140.295C107.302 140.288 107.78 140.092 108.142 139.748C108.313 139.567 108.447 139.356 108.539 139.125C108.824 138.421 108.668 137.616 108.142 137.068C107.961 136.897 107.751 136.762 107.519 136.672C107.293 136.575 107.049 136.524 106.802 136.521C106.036 136.516 105.342 136.976 105.049 137.684C104.755 138.393 104.918 139.208 105.462 139.748L105.746 139.974C105.851 140.045 105.965 140.103 106.085 140.144Z" fill="#C6CBDB"/>
<path d="M304.507 130.473C308.269 136.045 309.212 150.03 309.212 150.03L305.713 152.331C300.532 155.738 291.588 151.471 285.737 142.828C279.886 134.185 279.349 124.376 284.53 120.975L288.029 118.674C288.029 118.674 300.851 125.036 304.507 130.473Z" fill="#EBF1F7"/>
<path d="M309.033 149.484C314.225 146.026 313.88 136.382 308.261 127.944C302.641 119.506 293.877 115.468 288.684 118.926C283.491 122.384 283.836 132.028 289.456 140.466C295.075 148.905 303.84 152.942 309.033 149.484Z" fill="#F4F6F8"/>
<path d="M9.23043 142.024C6.7227 145.483 6.0918 154.174 6.0918 154.174L8.42456 155.602C11.8813 157.716 17.8458 155.066 21.7478 149.682C25.6499 144.299 25.9892 138.219 22.5537 136.105L20.2209 134.678C20.2209 134.678 11.6745 138.658 9.23043 142.024Z" fill="#EBF1F7"/>
<path d="M18.1665 147.743C21.9127 142.117 22.4939 135.922 19.4647 133.904C16.4356 131.887 10.9431 134.812 7.19701 140.438C3.45089 146.064 2.86968 152.259 5.89883 154.276C8.92798 156.294 14.4204 153.368 18.1665 147.743Z" fill="#F4F6F8"/>
<path d="M252.35 190.278C258.195 190.376 268.733 194.982 268.733 194.982L268.694 197.615C268.634 201.509 261.219 204.558 252.13 204.39C243.04 204.222 235.725 200.948 235.786 197.048L235.824 194.415C235.824 194.415 246.671 190.18 252.35 190.278Z" fill="#EBF1F7"/>
<path d="M269.672 193.842C269.736 189.943 262.414 186.661 253.317 186.512C244.22 186.363 236.793 189.402 236.729 193.301C236.665 197.2 243.988 200.481 253.085 200.631C262.182 200.78 269.609 197.74 269.672 193.842Z" fill="#F4F6F8"/>
<path d="M71.7711 184.641C67.107 184.877 58.8066 188.829 58.8066 188.829L58.9051 190.926C59.0527 194.031 65.051 196.252 72.3015 195.886C79.552 195.519 85.3098 192.707 85.1621 189.601L85.0637 187.504C85.0637 187.504 76.3041 184.415 71.7711 184.641Z" fill="#EBF1F7"/>
<path d="M72.2622 194.035C79.5322 193.681 85.3026 190.868 85.1508 187.752C84.9989 184.636 78.9823 182.398 71.7123 182.752C64.4423 183.106 58.6719 185.919 58.8238 189.035C58.9756 192.151 64.9922 194.389 72.2622 194.035Z" fill="#F4F6F8"/>
<path d="M288.347 183.694C285.025 183.849 279.09 186.486 279.09 186.486L279.162 187.882C279.267 189.955 283.553 191.436 288.73 191.191C293.907 190.946 298.02 189.06 297.915 187.003L297.843 185.607C297.843 185.607 291.587 183.545 288.347 183.694Z" fill="#EBF1F7"/>
<path d="M288.687 190.272C293.88 190.019 298.007 188.13 297.906 186.053C297.805 183.975 293.513 182.497 288.32 182.75C283.128 183.003 279 184.892 279.101 186.969C279.202 189.046 283.494 190.525 288.687 190.272Z" fill="#F4F6F8"/>
<path d="M58.8055 89.5495C73.3628 89.5495 85.1638 77.7485 85.1638 63.1913C85.1638 48.634 73.3628 36.833 58.8055 36.833C44.2483 36.833 32.4473 48.634 32.4473 63.1913C32.4473 77.7485 44.2483 89.5495 58.8055 89.5495Z" fill="#FDD760" stroke="#FFC729" stroke-width="5.6"/>
<path d="M59.7461 46.2471V68.8399V46.2471Z" fill="#FDD760"/>
<path d="M59.7461 46.2471V68.8399" stroke="#FFC729" stroke-width="5.6" stroke-linecap="round"/>
<path d="M59.7461 80.1357V78.2529V80.1357Z" fill="#FDD760"/>
<path d="M59.7461 80.1357V78.2529" stroke="#FFC729" stroke-width="5.6" stroke-linecap="round"/>
<g style="mix-blend-mode:screen" opacity="0.38">
<path d="M42.9455 62.3036C42.949 50.6037 50.6888 40.3053 61.9548 37.0103C51.3021 35.7752 40.9554 41.0721 35.7593 50.4208C30.5632 59.7695 31.5464 71.3194 38.2485 79.6624C44.9505 88.0054 56.0448 91.4899 66.3365 88.4845C53.0031 86.9348 42.9478 75.6802 42.9455 62.3036Z" fill="#FDD760"/>
</g>
<path fill-rule="evenodd" clip-rule="evenodd" d="M58.8055 89.5495C73.3628 89.5495 85.1638 77.7485 85.1638 63.1913C85.1638 48.634 73.3628 36.833 58.8055 36.833C44.2483 36.833 32.4473 48.634 32.4473 63.1913C32.4473 77.7485 44.2483 89.5495 58.8055 89.5495Z" stroke="#FFC729" stroke-width="5.6"/>
<path d="M243.98 34.126L294.818 76.0521L271.459 104.376L220.622 62.4496L243.98 34.126Z" fill="#E6ECF4"/>
<g style="mix-blend-mode:multiply" opacity="0.27">
<path d="M235.781 57.5839C236.61 56.5791 238.096 56.4364 239.1 57.265L243.649 61.0158C244.653 61.8444 244.796 63.3307 243.967 64.3354C243.139 65.3401 241.653 65.4829 240.648 64.6543L236.1 60.9034C235.095 60.0748 234.952 58.5886 235.781 57.5839Z" fill="#DAE2EC"/>
</g>
<g style="mix-blend-mode:multiply" opacity="0.27">
<path d="M266.927 83.912C267.756 82.9073 269.242 82.7645 270.247 83.5931L274.795 87.344C275.8 88.1726 275.943 89.6588 275.114 90.6635C274.285 91.6683 272.799 91.811 271.794 90.9824L267.246 87.2316C266.242 86.403 266.099 84.9167 266.927 83.912Z" fill="#DAE2EC"/>
</g>
<g style="mix-blend-mode:multiply" opacity="0.27">
<path d="M241.838 49.8456C242.666 48.8409 244.152 48.6981 245.157 49.5267L249.705 53.2776C250.71 54.1062 250.853 55.5924 250.024 56.5971C249.195 57.6019 247.709 57.7446 246.705 56.916L242.156 53.1652C241.152 52.3366 241.009 50.8503 241.838 49.8456Z" fill="#DAE2EC"/>
</g>
<g style="mix-blend-mode:multiply" opacity="0.27">
<path d="M272.984 76.1727C273.813 75.168 275.299 75.0252 276.304 75.8539L280.852 79.6047C281.856 80.4333 281.999 81.9195 281.171 82.9243C280.342 83.929 278.856 84.0718 277.851 83.2432L273.303 79.4923C272.298 78.6637 272.155 77.1775 272.984 76.1727Z" fill="#DAE2EC"/>
</g>
<circle cx="257.525" cy="69.7439" r="9.41366" transform="rotate(21.3528 257.525 69.7439)" fill="#DDE5EF"/>
</svg>
