<svg width="86" height="14" viewBox="0 0 86 14" fill="none" xmlns="http://www.w3.org/2000/svg">
<path d="M13.7105 6.23024L10.8896 8.65979C10.7291 8.80412 10.6373 9.04467 10.7061 9.26117L11.5547 12.9175C11.6694 13.5189 11.2566 14 10.7749 14C10.6373 14 10.4768 13.9519 10.3392 13.8557L7.26601 11.8591C7.08254 11.7388 6.85319 11.7388 6.66972 11.8591L3.61947 13.8316C3.48186 13.9278 3.32133 13.9759 3.18372 13.9759C2.7021 13.9759 2.24342 13.4948 2.40396 12.8935L3.25252 9.23711C3.29839 9.02062 3.22959 8.78007 3.06905 8.63574L0.294008 6.23024C-0.279347 5.72509 0.041732 4.73883 0.775627 4.69072L4.3763 4.42612C4.58271 4.40206 4.76618 4.25773 4.85792 4.06529L6.23397 0.553265C6.37158 0.19244 6.69265 0 7.01373 0C7.33481 0 7.65589 0.19244 7.7935 0.553265L9.16955 4.06529C9.26129 4.28179 9.44476 4.42612 9.65117 4.42612L13.2518 4.69072C13.9399 4.73883 14.2839 5.72509 13.7105 6.23024Z" fill="#F36C32"/>
<path d="M31.7105 6.23024L28.8896 8.65979C28.7291 8.80412 28.6373 9.04467 28.7061 9.26117L29.5547 12.9175C29.6694 13.5189 29.2566 14 28.7749 14C28.6373 14 28.4768 13.9519 28.3392 13.8557L25.266 11.8591C25.0825 11.7388 24.8532 11.7388 24.6697 11.8591L21.6195 13.8316C21.4819 13.9278 21.3213 13.9759 21.1837 13.9759C20.7021 13.9759 20.2434 13.4948 20.404 12.8935L21.2525 9.23711C21.2984 9.02062 21.2296 8.78007 21.069 8.63574L18.294 6.23024C17.7207 5.72509 18.0417 4.73883 18.7756 4.69072L22.3763 4.42612C22.5827 4.40206 22.7662 4.25773 22.8579 4.06529L24.234 0.553265C24.3716 0.19244 24.6927 0 25.0137 0C25.3348 0 25.6559 0.19244 25.7935 0.553265L27.1695 4.06529C27.2613 4.28179 27.4448 4.42612 27.6512 4.42612L31.2518 4.69072C31.9399 4.73883 32.2839 5.72509 31.7105 6.23024Z" fill="#F36C32"/>
<path d="M49.7105 6.23024L46.8896 8.65979C46.7291 8.80412 46.6373 9.04467 46.7061 9.26117L47.5547 12.9175C47.6694 13.5189 47.2566 14 46.7749 14C46.6373 14 46.4768 13.9519 46.3392 13.8557L43.266 11.8591C43.0825 11.7388 42.8532 11.7388 42.6697 11.8591L39.6195 13.8316C39.4819 13.9278 39.3213 13.9759 39.1837 13.9759C38.7021 13.9759 38.2434 13.4948 38.404 12.8935L39.2525 9.23711C39.2984 9.02062 39.2296 8.78007 39.069 8.63574L36.294 6.23024C35.7207 5.72509 36.0417 4.73883 36.7756 4.69072L40.3763 4.42612C40.5827 4.40206 40.7662 4.25773 40.8579 4.06529L42.234 0.553265C42.3716 0.19244 42.6927 0 43.0137 0C43.3348 0 43.6559 0.19244 43.7935 0.553265L45.1695 4.06529C45.2613 4.28179 45.4448 4.42612 45.6512 4.42612L49.2518 4.69072C49.9399 4.73883 50.2839 5.72509 49.7105 6.23024Z" fill="#DADCE3"/>
<path d="M67.7105 6.23024L64.8896 8.65979C64.7291 8.80412 64.6373 9.04467 64.7061 9.26117L65.5547 12.9175C65.6694 13.5189 65.2566 14 64.7749 14C64.6373 14 64.4768 13.9519 64.3392 13.8557L61.266 11.8591C61.0825 11.7388 60.8532 11.7388 60.6697 11.8591L57.6195 13.8316C57.4819 13.9278 57.3213 13.9759 57.1837 13.9759C56.7021 13.9759 56.2434 13.4948 56.404 12.8935L57.2525 9.23711C57.2984 9.02062 57.2296 8.78007 57.069 8.63574L54.294 6.23024C53.7207 5.72509 54.0417 4.73883 54.7756 4.69072L58.3763 4.42612C58.5827 4.40206 58.7662 4.25773 58.8579 4.06529L60.234 0.553265C60.3716 0.19244 60.6927 0 61.0137 0C61.3348 0 61.6559 0.19244 61.7935 0.553265L63.1695 4.06529C63.2613 4.28179 63.4448 4.42612 63.6512 4.42612L67.2518 4.69072C67.9399 4.73883 68.2839 5.72509 67.7105 6.23024Z" fill="#DADCE3"/>
<mask id="mask0_1727_22117" style="mask-type:alpha" maskUnits="userSpaceOnUse" x="54" y="0" width="14" height="14">
<path d="M67.7105 6.23024L64.8896 8.65979C64.7291 8.80412 64.6373 9.04467 64.7061 9.26117L65.5547 12.9175C65.6694 13.5189 65.2566 14 64.7749 14C64.6373 14 64.4768 13.9519 64.3392 13.8557L61.266 11.8591C61.0825 11.7388 60.8532 11.7388 60.6697 11.8591L57.6195 13.8316C57.4819 13.9278 57.3213 13.9759 57.1837 13.9759C56.7021 13.9759 56.2434 13.4948 56.404 12.8935L57.2525 9.23711C57.2984 9.02062 57.2296 8.78007 57.069 8.63574L54.294 6.23024C53.7207 5.72509 54.0417 4.73883 54.7756 4.69072L58.3763 4.42612C58.5827 4.40206 58.7662 4.25773 58.8579 4.06529L60.234 0.553265C60.3716 0.19244 60.6927 0 61.0137 0C61.3348 0 61.6559 0.19244 61.7935 0.553265L63.1695 4.06529C63.2613 4.28179 63.4448 4.42612 63.6512 4.42612L67.2518 4.69072C67.9399 4.73883 68.2839 5.72509 67.7105 6.23024Z" fill="#404553"/>
</mask>
<g mask="url(#mask0_1727_22117)">
<rect x="54" width="7" height="14" fill="#DADCE3"/>
</g>
<path d="M85.7105 6.23024L82.8896 8.65979C82.7291 8.80412 82.6373 9.04467 82.7061 9.26117L83.5547 12.9175C83.6694 13.5189 83.2566 14 82.7749 14C82.6373 14 82.4768 13.9519 82.3392 13.8557L79.266 11.8591C79.0825 11.7388 78.8532 11.7388 78.6697 11.8591L75.6195 13.8316C75.4819 13.9278 75.3213 13.9759 75.1837 13.9759C74.7021 13.9759 74.2434 13.4948 74.404 12.8935L75.2525 9.23711C75.2984 9.02062 75.2296 8.78007 75.069 8.63574L72.294 6.23024C71.7207 5.72509 72.0417 4.73883 72.7756 4.69072L76.3763 4.42612C76.5827 4.40206 76.7662 4.25773 76.8579 4.06529L78.234 0.553265C78.3716 0.19244 78.6927 0 79.0137 0C79.3348 0 79.6559 0.19244 79.7935 0.553265L81.1695 4.06529C81.2613 4.28179 81.4448 4.42612 81.6512 4.42612L85.2518 4.69072C85.9399 4.73883 86.2839 5.72509 85.7105 6.23024Z" fill="#DADCE3"/>
</svg>
